<?xml version="1.0" encoding="UTF-8"?>
<svg id="Warstwa_2" data-name="Warstwa 2" xmlns="http://www.w3.org/2000/svg" viewBox="0 0 656.31 387.67">
  <defs>
    <style>
      .cls-1 {
        fill: #fff;
      }
    </style>
  </defs>
  <g id="Warstwa_1-2" data-name="Warstwa 1">
    <g>
      <g>
        <polygon class="cls-1" points="195.69 279.53 206.11 313.24 239.82 313.24 212.55 334.08 222.97 367.79 195.69 346.96 168.42 367.79 178.83 334.08 151.56 313.24 185.27 313.24 195.69 279.53"/>
        <path class="cls-1" d="M133.19,264.1v123.57h123.57v-123.57h-123.57ZM194.97,370.02c-24.37,0-44.13-19.76-44.13-44.13s19.76-44.13,44.13-44.13,44.13,19.76,44.13,44.13-19.76,44.13-44.13,44.13Z"/>
      </g>
      <g>
        <polygon class="cls-1" points="328.16 277.48 338.58 311.19 372.29 311.19 345.01 332.03 355.43 365.75 328.16 344.91 300.88 365.75 311.3 332.03 284.02 311.19 317.74 311.19 328.16 277.48"/>
        <path class="cls-1" d="M266.37,264.1v123.57h123.57v-123.57h-123.57ZM328.16,370.02c-24.37,0-44.13-19.76-44.13-44.13s19.76-44.13,44.13-44.13,44.13,19.76,44.13,44.13-19.76,44.13-44.13,44.13Z"/>
      </g>
      <g>
        <polygon class="cls-1" points="463.11 277.48 473.53 311.19 507.24 311.19 479.96 332.03 490.38 365.75 463.11 344.91 435.83 365.75 446.25 332.03 418.97 311.19 452.69 311.19 463.11 277.48"/>
        <path class="cls-1" d="M399.56,264.1v123.57h123.57v-123.57h-123.57ZM461.34,370.02c-24.37,0-44.13-19.76-44.13-44.13s19.76-44.13,44.13-44.13,44.13,19.76,44.13,44.13-19.76,44.13-44.13,44.13Z"/>
      </g>
      <g>
        <polygon class="cls-1" points="596.29 277.48 606.71 311.19 640.43 311.19 613.15 332.03 623.57 365.75 596.29 344.91 569.02 365.75 579.43 332.03 552.16 311.19 585.87 311.19 596.29 277.48"/>
        <path class="cls-1" d="M532.74,246.1v141.57h123.57v-141.57h-123.57ZM594.53,370.02c-24.37,0-44.13-19.76-44.13-44.13s19.76-44.13,44.13-44.13,44.13,19.76,44.13,44.13-19.76,44.13-44.13,44.13Z"/>
      </g>
      <g>
        <polygon class="cls-1" points="63.55 277.48 73.97 311.19 107.69 311.19 80.41 332.03 90.83 365.75 63.55 344.91 36.28 365.75 46.69 332.03 19.42 311.19 53.13 311.19 63.55 277.48"/>
        <path class="cls-1" d="M0,246.1v141.57h123.57v-141.57H0ZM61.79,370.02c-24.37,0-44.13-19.76-44.13-44.13s19.76-44.13,44.13-44.13,44.13,19.76,44.13,44.13-19.76,44.13-44.13,44.13Z"/>
      </g>
      <rect class="cls-1" x="532.74" y="114.06" width="123.57" height="114.75"/>
      <rect class="cls-1" y="114.06" width="123.57" height="114.75"/>
      <rect class="cls-1" y="73.23" width="656.31" height="33.48"/>
      <rect class="cls-1" x="565.46" y="49.14" width="48.94" height="16.74"/>
      <rect class="cls-1" x="133.19" width="393.34" height="29.29"/>
      <rect class="cls-1" x="532.74" width="19.42" height="65.87"/>
      <rect class="cls-1" x="105.92" width="19.42" height="65.87"/>
      <rect class="cls-1" x="161.43" y="122.4" width="68.52" height="38.18"/>
      <rect class="cls-1" x="428.85" y="122.4" width="68.52" height="38.18"/>
      <rect class="cls-1" x="289.59" y="122.4" width="77.14" height="66.71"/>
      <circle class="cls-1" cx="171.24" cy="221.98" r="16.87"/>
      <circle class="cls-1" cx="488.61" cy="221.98" r="16.87"/>
      <path class="cls-1" d="M135.8,111.41v142.8h387.33V111.41H135.8ZM418.97,114.06h88.27v76.33h-88.27v-76.33ZM268.95,114.06h120.24v88.37h-120.24v-88.37ZM150.84,114.06h88.27v76.33h-88.27v-76.33ZM171.24,247.47c-14.08,0-25.5-11.42-25.5-25.5s11.42-25.5,25.5-25.5,25.5,11.42,25.5,25.5-11.42,25.5-25.5,25.5ZM456.44,246.1h-254.73v-34.26h254.73v34.26ZM488.61,247.47c-14.08,0-25.5-11.42-25.5-25.5s11.42-25.5,25.5-25.5,25.5,11.42,25.5,25.5-11.42,25.5-25.5,25.5Z"/>
    </g>
  </g>
</svg>